# xmcd CD database file
#
# Track frame offsets:
#	150
#	9234
#	32709
#	63159
#	89659
#	117853
#	145153
#	175228
#	201837
#	226437
#
# Disc length: 3321 seconds
#
# Revision: 1
# Processed by: cddbd v1.5.1PL0 Copyright (c) Steve Scherf et al.
# Submitted via: CDex 1.50beta8
#
DISCID=800cf70a
DTITLE=菅野義孝 - INTRODUCING
DYEAR=2003
DGENRE=Jazz
TTITLE0=SMILE(Charles Chaplin)
TTITLE1=FEELIN' GRANT(Yoshitaka Kanno)
TTITLE2=SHINY STOCKINGS(Frank Foster)
TTITLE3=LEFT ALONE(Mal Waldron)
TTITLE4=BLUES FOR ISLAY(Yoshitaka Kanno)
TTITLE5=JUMPIN' AT THE SPRING SIDE(Yoshitaka Kanno)
TTITLE6=HAVE YOU MET MISS JONES?(Richard Rodgers)
TTITLE7=LIL' DARLIN'(Neal Hefti)
TTITLE8=TENDERLY(Gross Lawrence)
TTITLE9=ORNITHOLOGY(Charlie Parker)
EXTD=YEAR: 2003
EXTT0=
EXTT1=
EXTT2=
EXTT3=
EXTT4=
EXTT5=
EXTT6=
EXTT7=
EXTT8=
EXTT9=
PLAYORDER=
